<?xml version="1.0" encoding="iso-8859-1"?>
<!-- Generator: Adobe Illustrator 19.0.0, SVG Export Plug-In . SVG Version: 6.00 Build 0)  -->
<svg version="1.1" id="Layer_1" xmlns="http://www.w3.org/2000/svg" xmlns:xlink="http://www.w3.org/1999/xlink" x="0px" y="0px"
	 viewBox="0 0 512 512" style="enable-background:new 0 0 512 512;" xml:space="preserve">
<g>
	<g>
		<path d="M200.348,0H33.391H0v33.391v166.957v33.391h33.391h166.957h33.391v-33.391V33.391V0H200.348z M200.348,200.348H33.391
			V33.391h166.957V200.348z"/>
	</g>
</g>
<g>
	<g>
		<path d="M478.609,0H311.652h-33.391v33.391v166.957v33.391h33.391h166.957H512v-33.391V33.391V0H478.609z M478.609,200.348
			H311.652V33.391h166.957V200.348z"/>
	</g>
</g>
<g>
	<g>
		<path d="M200.348,278.261H33.391H0v33.391v166.957V512h33.391h166.957h33.391v-33.391V311.652v-33.391H200.348z M200.348,478.609
			H33.391V311.652h166.957V478.609z"/>
	</g>
</g>
<g>
	<g>
		<path d="M478.609,278.261H311.652h-33.391v33.391v166.957V512h33.391h166.957H512v-33.391V311.652v-33.391H478.609z
			 M478.609,478.609H311.652V311.652h166.957V478.609z"/>
	</g>
</g>
<g>
</g>
<g>
</g>
<g>
</g>
<g>
</g>
<g>
</g>
<g>
</g>
<g>
</g>
<g>
</g>
<g>
</g>
<g>
</g>
<g>
</g>
<g>
</g>
<g>
</g>
<g>
</g>
<g>
</g>
</svg>
